<svg xmlns="http://www.w3.org/2000/svg" width="105.924" height="93.453"><g id="last_arrow" data-name="last arrow" transform="translate(-908 -3695)"><g id="Group_10" data-name="Group 10"><circle id="Ellipse_7" data-name="Ellipse 7" cx="37.5" cy="37.5" r="37.5" transform="translate(923 3695)" fill="none"/><path id="Union_3" data-name="Union 3" d="M0 20h8.25L11 0l2.75 20H22L11 40z" transform="translate(949.749 3710)" fill="#fcdb48"/></g><g id="Group_15" data-name="Group 15" transform="translate(496.726 2259.049)" fill="#fcdb48"><path id="Path_57" data-name="Path 57" d="M412.627 1470.951a2.017 2.017 0 00.535 1.413 2.342 2.342 0 001.452.384l7.037.114-.079 4.86a3.041 3.041 0 01-.846 2.236 3.5 3.5 0 01-2.569.769l-6.749-.11.031-1.926 6.839.111a1.915 1.915 0 001.384-.392 1.611 1.611 0 00.442-1.2l.04-2.448-5.345-.087a3.5 3.5 0 01-2.578-.869 4.368 4.368 0 01-.947-2.7z"/><path id="Path_58" data-name="Path 58" d="M413.581 1484.94l.62 2.85 5.523-1.2a1.685 1.685 0 001.033-.538 1.444 1.444 0 00.236-.991l-.084-1.234 1.478-.064.134 1.886a2.486 2.486 0 01-.534 1.821 3.14 3.14 0 01-1.819.994l-7 1.524-1.03-4.731z"/><path id="Path_59" data-name="Path 59" d="M415.645 1497.107l1.9-1.2a5.46 5.46 0 01-1.875-.583 5.588 5.588 0 01-1.569-1.269l1.156-1.224a7.117 7.117 0 001.788 1.521 4.689 4.689 0 002.022.612l2.922-1.179a2.348 2.348 0 00.982-.619 1.028 1.028 0 00.116-.891l-.274-1.112 1.447-.312.433 1.747a2.2 2.2 0 01-.193 1.737 3.29 3.29 0 01-1.608 1.163l-3.205 1.292-3.36 2.015z"/><path id="Path_60" data-name="Path 60" d="M424.989 1498.035l1.717-1.238.952 1.653-1.708 1.254-6.941 4-.961-1.669z"/><path id="Path_61" data-name="Path 61" d="M424.925 1504.111l1.1-.566 1.062 1.27-4.68 3.915-1.236-1.476zm5.407 3.433a1.923 1.923 0 00.791-1.2 1.616 1.616 0 00-.45-1.2l-2.841-3.4 1.132-.947 3.153 3.768a3.04 3.04 0 01.822 2.245 3.489 3.489 0 01-1.44 2.262l-5.177 4.331-1.236-1.476z"/><path id="Path_62" data-name="Path 62" d="M436.019 1515.381l.856-.893 1.416.859-3.161 5.219-1.647-1zm6.227 1.5a1.915 1.915 0 00.358-1.393 1.608 1.608 0 00-.812-.986l-3.792-2.296.765-1.263 4.2 2.545a3.047 3.047 0 011.505 1.859 3.5 3.5 0 01-.631 2.606l-3.5 5.774-1.647-1z"/><path id="Path_63" data-name="Path 63" d="M455.5 1518.452a39.449 39.449 0 01-1.885 5.135 5.41 5.41 0 01-2.17 2.436 6.267 6.267 0 01-3.769.518l-3.429-.366.19-1.525 3.081.334.434-8.873 1.84.571-.49 8.384a2.748 2.748 0 001.724-.821 5.988 5.988 0 001.164-1.929q.495-1.232 1.279-3.758l.208-.671z"/><path id="Path_64" data-name="Path 64" d="M462.549 1524.916l2.241 4.488-1.958-.124-6.162-.39.093-1.474 5.3.337-4.465-8.941 1.959.125 2.064 4.134 1.923-3.882 1.923.122z"/><path id="Path_65" data-name="Path 65" d="M474.278 1521.365a1.921 1.921 0 00-.647-1.284 1.619 1.619 0 00-1.261-.208l-4.361.769-.256-1.454 4.839-.852a3.041 3.041 0 012.357.407 3.5 3.5 0 011.241 2.376l1.172 6.648-1.9.335zm-5.672 2.974l.057-1.235 1.63-.288 1.059 6.01-1.9.334z"/><path id="Path_66" data-name="Path 66" d="M487.395 1516.186a1.921 1.921 0 00-1.02-1.015 1.617 1.617 0 00-1.262.2l-3.166 1.714-.7-1.3 3.594-1.945a3.044 3.044 0 012.364-.359 3.494 3.494 0 011.929 1.863l4.927 9.1-1.694.916z"/><path id="Path_67" data-name="Path 67" d="M494.849 1506.4l1.047 1.213 3.017 8.644-1.457 1.259-3.1-8.74-4.1 3.541-2.788-3.228 1.321-1.141 1.824 2.112z"/><path id="Path_68" data-name="Path 68" d="M502.813 1495.124a39.212 39.212 0 014.524 3.075 5.406 5.406 0 011.837 2.7 6.276 6.276 0 01-.413 3.782l-1.188 3.238-1.432-.555 1.072-2.908-8.5-2.575 1-1.647 8.016 2.512a2.754 2.754 0 00-.379-1.873 6 6 0 00-1.589-1.6q-1.074-.778-3.336-2.153l-.6-.365z"/><path id="Path_69" data-name="Path 69" d="M505.584 1493.629l-2.04-.566.7-1.777 2.046.549 2.548 1 1.05.43-.359 1.907z"/><path id="Path_70" data-name="Path 70" d="M515.771 1487.811l-2.246-.127a5.416 5.416 0 011.193 1.56 5.586 5.586 0 01.547 1.943l-1.65.33a7.152 7.152 0 00-.58-2.275 4.682 4.682 0 00-1.3-1.668l-3.065-.727a2.355 2.355 0 00-1.159-.063 1.027 1.027 0 00-.61.66l-.42 1.066-1.36-.582.657-1.676a2.2 2.2 0 011.161-1.306 3.282 3.282 0 011.984-.019l3.362.8 3.907.3z"/><path id="Path_71" data-name="Path 71" d="M515.854 1473.563a3.821 3.821 0 011.343 3.19 6.939 6.939 0 01-.205 1.545l-1.472-.222a5.828 5.828 0 00.163-1.167 2.22 2.22 0 00-.922-2.013 6.689 6.689 0 00-5.606-.119 1.983 1.983 0 00-.883 1.705 2.03 2.03 0 00.473 1.421 2.4 2.4 0 001.311.75l6.873 1.319-.031 1.925-6.944-1.409-3.172 1.353.032-2 2.137-.776a3.338 3.338 0 01-1.682-1.179 2.916 2.916 0 01-.539-1.774 3.406 3.406 0 011.3-2.787 6.208 6.208 0 013.931-.944 6.12 6.12 0 013.893 1.182z"/></g></g></svg>