<svg xmlns="http://www.w3.org/2000/svg" width="105.725" height="90.826"><g id="Group_50" data-name="Group 50" transform="translate(-908 -842)"><g id="arrow_01" data-name="arrow 01" transform="translate(757.252 -460.013)"><circle id="Ellipse_2" data-name="Ellipse 2" cx="37.5" cy="37.5" r="37.5" transform="translate(165.748 1302.013)" fill="none" opacity=".35" style="mix-blend-mode:multiply;isolation:isolate"/><g id="Group_28" data-name="Group 28" fill="#732163"><path id="Path_1" data-name="Path 1" d="M158.823 1337.448l2.112-.139-.069 1.907-2.114.157-8-.292.07-1.925z"/><path id="Path_2" data-name="Path 2" d="M152.22 1342.461l.283 2.9 5.625-.549a1.684 1.684 0 001.09-.414 1.445 1.445 0 00.35-.956l.06-1.235 1.476.108-.087 1.89a2.488 2.488 0 01-.743 1.745 3.14 3.14 0 01-1.923.776l-7.13.7-.47-4.82z"/><path id="Path_3" data-name="Path 3" d="M152.733 1351.063a2.021 2.021 0 00.965 1.162 2.346 2.346 0 001.5-.109l6.693-2.178 1.5 4.621a3.038 3.038 0 01-.074 2.39 3.494 3.494 0 01-2.18 1.562l-6.418 2.089-.6-1.831 6.5-2.118a1.92 1.92 0 001.182-.82 1.616 1.616 0 00.029-1.277l-.758-2.328-5.072 1.654a3.5 3.5 0 01-2.721.016 4.376 4.376 0 01-1.772-2.245z"/><path id="Path_4" data-name="Path 4" d="M163.845 1360.751l1.741-1.2.919 1.671-1.732 1.22-7.018 3.861-.928-1.688z"/><path id="Path_5" data-name="Path 5" d="M164.235 1375.323l2.067-6.556-5.578 2.243-1.159-1.424 6.052-2.373 1.309-.416 1.007-2.955 1.238 1.521-.93 2.707-.8 2.605 1.5-.64 3.008-1.265 1.171 1.437-6.26 2.4-1.324 4.305z"/><path id="Path_6" data-name="Path 6" d="M179.869 1379.389a1.92 1.92 0 00.392-1.384 1.616 1.616 0 00-.788-1.006l-2.806-1.793.794-1.244 3.216 2.055a3.044 3.044 0 011.46 1.894 3.5 3.5 0 01-.694 2.59l-3.634 5.688-1.623-1.037z"/><path id="Path_7" data-name="Path 7" d="M184.819 1380.674l.643-2.018 1.749.763-.627 2.023-1.092 2.509-.47 1.032-1.893-.431z"/><path id="Path_8" data-name="Path 8" d="M187.117 1388.731l2.509.651a2.311 2.311 0 002.041-.272 3.389 3.389 0 001.161-1.967l.306-1.185a3.4 3.4 0 00-.059-2.284 2.317 2.317 0 00-1.653-1.228l-2.509-.649.37-1.429 2.962.767a3.716 3.716 0 012.568 1.892 4.934 4.934 0 01.163 3.5l-.262 1.01a4.931 4.931 0 01-1.841 2.983 3.718 3.718 0 01-3.164.407l-2.962-.767z"/><path id="Path_9" data-name="Path 9" d="M198.163 1387.729l.3-1.2 1.655.044-.164 6.1-1.925-.052zm6.151-1.78a1.913 1.913 0 00-.376-1.387 1.612 1.612 0 00-1.194-.456l-4.427-.119.04-1.475 4.912.132a3.045 3.045 0 012.228.87 3.492 3.492 0 01.74 2.577l-.181 6.748-1.926-.052z"/><path id="Path_10" data-name="Path 10" d="M215.57 1381.063l.318 1.571-1.612 9.012-1.888.382 1.587-9.135-5.31 1.073-.846-4.181 1.711-.347.553 2.736z"/><path id="Path_11" data-name="Path 11" d="M227.025 1379.461a1.916 1.916 0 00-1.028-1.005 1.613 1.613 0 00-1.261.214l-3.15 1.742-.714-1.292 3.575-1.977a3.041 3.041 0 012.361-.38 3.492 3.492 0 011.946 1.844l5.009 9.057-1.685.933z"/><path id="Path_12" data-name="Path 12" d="M234.409 1369.589l1.059 1.2 3.1 8.614-1.445 1.273-3.185-8.708-4.066 3.581-2.819-3.2 1.31-1.154 1.844 2.094z"/><path id="Path_13" data-name="Path 13" d="M242.265 1358.233a39.391 39.391 0 014.554 3.031 5.423 5.423 0 011.864 2.677 6.283 6.283 0 01-.377 3.788l-1.156 3.249-1.438-.54 1.044-2.919-8.527-2.493.983-1.656 8.04 2.433a2.752 2.752 0 00-.4-1.868 5.984 5.984 0 00-1.6-1.582q-1.083-.77-3.357-2.121l-.6-.359z"/><path id="Path_14" data-name="Path 14" d="M245.012 1356.737l-2.045-.546.678-1.784 2.051.531 2.558.971 1.053.42-.341 1.911z"/><path id="Path_15" data-name="Path 15" d="M255.154 1350.776l-2.247-.1a5.436 5.436 0 011.209 1.548 5.576 5.576 0 01.566 1.937l-1.647.346a7.139 7.139 0 00-.6-2.268 4.693 4.693 0 00-1.314-1.655l-3.072-.7a2.38 2.38 0 00-1.161-.051 1.033 1.033 0 00-.6.666l-.408 1.07-1.367-.568.64-1.682A2.194 2.194 0 01246.3 1348a3.282 3.282 0 011.984-.039l3.37.764 3.91.259z"/><path id="Path_16" data-name="Path 16" d="M255.128 1336.694a3.824 3.824 0 011.344 3.19 7 7 0 01-.2 1.545l-1.473-.222a5.758 5.758 0 00.163-1.167 2.222 2.222 0 00-.921-2.014 5.087 5.087 0 00-2.78-.674 5.021 5.021 0 00-2.826.556 1.981 1.981 0 00-.883 1.705 2.031 2.031 0 00.472 1.421 2.4 2.4 0 001.311.75l6.874 1.319-.032 1.925-6.943-1.409-3.173 1.353.032-2 2.137-.776a3.346 3.346 0 01-1.682-1.179 2.909 2.909 0 01-.538-1.774 3.405 3.405 0 011.3-2.787 6.21 6.21 0 013.931-.944 6.12 6.12 0 013.887 1.182z"/></g></g><path id="Union_1" data-name="Union 1" d="M0 20h8.25L11 0l2.75 20H22L11 40z" transform="translate(949.749 857)" fill="#732163"/></g></svg>