<svg xmlns="http://www.w3.org/2000/svg" width="97" height="97"><defs><filter id="Ellipse_9" x="0" y="0" width="97" height="97" filterUnits="userSpaceOnUse"><feOffset dy="-3"/><feGaussianBlur stdDeviation="3" result="blur"/><feFlood flood-opacity=".122" result="color"/><feComposite operator="out" in="SourceGraphic" in2="blur"/><feComposite operator="in" in="color"/><feComposite operator="in" in2="SourceGraphic"/></filter></defs><g id="Group_24" data-name="Group 24" transform="translate(-1666 -484)"><g data-type="innerShadowGroup" transform="translate(1666 484)"><circle id="Ellipse_9-2" data-name="Ellipse 9" cx="48.5" cy="48.5" r="48.5" fill="rgba(252,219,72,0.76)" style="mix-blend-mode:multiply;isolation:isolate"/><g filter="url(#Ellipse_9)" style="mix-blend-mode:multiply;isolation:isolate"><circle id="Ellipse_9-3" data-name="Ellipse 9" cx="48.5" cy="48.5" r="48.5" fill="#fff"/></g></g><path id="Path_97" data-name="Path 97" d="M7074.518 4279.266h-8.667v-29.354h-5.95v-7.54h5.95v-.949c0-6.153 1.355-10.6 4.029-13.22a14.307 14.307 0 0110.409-3.938 41.3 41.3 0 015.834.523l.809.121v7.434l-1.067-.136a37.057 37.057 0 00-4.4-.352 8.73 8.73 0 00-5.054 1.423c-1.241.855-1.9 3.228-1.9 6.861v2.232h11.721l-1.642 7.54h-10.079z" transform="translate(-5358.916 -3719.266)" fill="#732163"/></g></svg>