<svg xmlns="http://www.w3.org/2000/svg" width="50" height="50"><defs><filter id="Ellipse_10"><feOffset dy="6"/><feGaussianBlur stdDeviation="3" result="blur"/><feFlood flood-opacity=".161" result="color"/><feComposite operator="out" in="SourceGraphic" in2="blur"/><feComposite operator="in" in="color"/><feComposite operator="in" in2="SourceGraphic"/></filter></defs><g id="Group_48" data-name="Group 48" transform="translate(-283 -586)"><g data-type="innerShadowGroup" transform="translate(283 586)" id="Group_47" data-name="Group 47"><circle id="Ellipse_10-2" data-name="Ellipse 10" cx="25" cy="25" r="25" fill="#732163"/><g filter="url(#Ellipse_10)"><circle id="Ellipse_10-3" data-name="Ellipse 10" cx="25" cy="25" r="25" fill="#fff"/></g></g><path id="Path_100" data-name="Path 100" d="M142.8 130.633a1.715 1.715 0 011.393.133 3.131 3.131 0 01.646.557l3.1 3.1a1.71 1.71 0 01.509 1.2 1.826 1.826 0 01-.307 1.043 3.762 3.762 0 01-.432.49c-.5.5-1.005 1-1.5 1.505.141.3.324.588.485.882s.345.582.526.866a14.818 14.818 0 002.271 2.831 14.608 14.608 0 002.626 2.06c.562.367 1.15.69 1.741 1.009q.838-.84 1.679-1.678a1.845 1.845 0 01.735-.47 1.712 1.712 0 011.326.062 2.834 2.834 0 01.8.655q1.533 1.535 3.068 3.069a1.772 1.772 0 01.51 1.2v.08a2.058 2.058 0 01-.2.757 4.731 4.731 0 01-.946 1.07 2.074 2.074 0 01-.476.409 5.576 5.576 0 01-1.629.834 5.423 5.423 0 01-.842.206 3.086 3.086 0 01-.949.04 8.2 8.2 0 01-1.191-.127c-.35-.044-.688-.151-1.033-.221-.341-.107-.69-.189-1.021-.325-.429-.126-.831-.323-1.245-.487-.37-.176-.737-.359-1.1-.545-.5-.291-1.015-.569-1.493-.9-.595-.37-1.142-.809-1.7-1.226a27.412 27.412 0 01-1.785-1.568c-.535-.486-1.018-1.023-1.523-1.539a23.084 23.084 0 01-3.787-5.1 10.274 10.274 0 01-1.029-3.088 8.214 8.214 0 01-.068-2.326 5.665 5.665 0 011.073-2.9 1.272 1.272 0 01.161-.25l.78-.782a1.933 1.933 0 01.834-.532" transform="translate(157.097 469.446)" fill="#fcdb48"/></g></svg>