<svg xmlns="http://www.w3.org/2000/svg" width="173.105" height="150"><path id="Path_56" data-name="Path 56" d="M882.105 868.417h-30.286v-66.55a18.818 18.818 0 00-18.8-18.8h-6.255a5.657 5.657 0 00-4.963-8.443h-45.574a5.657 5.657 0 00-4.964 8.443h-13.051v-11.484a24.331 24.331 0 00-24.3-24.3h-2.119V745H709v9.115h22.789v-2.279h2.119a19.768 19.768 0 0119.746 19.746v36.384A43.543 43.543 0 10799.4 853.7h47.861v14.924a13.312 13.312 0 1012.274 4.348h22.57zm-34.844-66.55v5.982h-89.049v-20.223h74.811a14.257 14.257 0 0114.238 14.241zm-91.317 33.126a16.431 16.431 0 11-16.453 16.431 16.449 16.449 0 0116.454-16.431zm43.506 14.152c-.018-.353-.075-.693-.1-1.044-.055-.72-.123-1.436-.214-2.144s-.2-1.392-.317-2.081-.251-1.385-.406-2.069-.335-1.354-.522-2.024-.371-1.333-.586-1.987-.469-1.306-.718-1.953-.481-1.272-.754-1.891c-.283-.643-.6-1.263-.912-1.889-.3-.592-.579-1.192-.9-1.771-.349-.629-.738-1.228-1.117-1.839-.339-.54-.659-1.094-1.021-1.618-.429-.627-.9-1.219-1.363-1.823-.36-.472-.7-.959-1.078-1.415-.631-.757-1.308-1.47-1.985-2.183a43.51 43.51 0 00-1.37-1.381c-.757-.727-1.52-1.445-2.327-2.115-.413-.344-.857-.65-1.281-.978-.649-.5-1.29-1.007-1.967-1.47-.479-.328-.982-.62-1.474-.927-.661-.415-1.315-.836-2-1.215-.524-.292-1.067-.547-1.6-.816l-.2-.1h72.028v36.738z" transform="translate(-709 -745)" fill="#732163"/></svg>