<svg id="Group_11" data-name="Group 11" xmlns="http://www.w3.org/2000/svg" width="147.893" height="150"><path id="Path_53" data-name="Path 53" d="M953.616 798.046a12.724 12.724 0 00-17.344-4.656l-1.758 1.012V778.4h-4.621v18.663L908.948 809.1a12.6 12.6 0 00-12.548-14.529h-37.687a16.2 16.2 0 00-8.4 2.355l-8.224 5.012v-25.853h-4.621v28.667l-10.391 6.329a2.27 2.27 0 00-.811.922l-3.027-4.8a2.31 2.31 0 00-3.145-.746l-11.545 6.932a2.309 2.309 0 00-.735 3.26l29.059 43.7a2.313 2.313 0 003.2.647l10.188-6.743a2.312 2.312 0 00.679-3.161l-1.486-2.355 6.669-4a11.509 11.509 0 015.934-1.645H896.1a16.208 16.208 0 008-2.119l44.869-25.573a12.725 12.725 0 004.647-17.354zm-6.946 13.347l-44.851 25.568a11.587 11.587 0 01-5.714 1.514h-34.051a16.149 16.149 0 00-8.314 2.3l-6.756 4.055-18.62-29.5a2.242 2.242 0 001.111-.3l23.234-14.156a11.57 11.57 0 016-1.682H896.4a8.087 8.087 0 01-.007 16.175h-26.579a2.311 2.311 0 000 4.621h26.576a12.679 12.679 0 009.844-4.688 2.3 2.3 0 001.62-.236l30.727-17.664a8.083 8.083 0 018.09 14z" transform="translate(-807.423 -711.385)" fill="#732163"/><path id="Path_54" data-name="Path 54" d="M816.735 808.163H830.6a2.31 2.31 0 002.311-2.311v-5.731l43.9-30.73 43.9 30.73v8.042a2.31 2.31 0 002.311 2.311h13.864a2.31 2.31 0 002.311-2.311v-16.175a2.307 2.307 0 00-1-1.9L878.128 748.5a2.314 2.314 0 00-2.632 0l-60.079 41.593a2.311 2.311 0 00-.993 1.9v13.864a2.31 2.31 0 002.311 2.306z" transform="translate(-798.248 -748.085)" fill="#732163"/><path id="Path_55" data-name="Path 55" d="M855.045 752.706h18.486v20.8h4.621V750.4a2.31 2.31 0 00-2.311-2.311h-23.106a2.31 2.31 0 00-2.311 2.311v6.932h4.621z" transform="translate(-751.062 -748.085)" fill="#732163"/></svg>