<svg xmlns="http://www.w3.org/2000/svg" width="363" height="494.436"><path id="Subtraction_3" data-name="Subtraction 3" d="M243.461 493.936a27.677 27.677 0 01-15.161-4.522 28.76 28.76 0 01-10.352-12 39.812 39.812 0 00-36.016-22.914 39.812 39.812 0 00-36.018 22.916 28.763 28.763 0 01-10.352 12 27.677 27.677 0 01-15.161 4.522L.5 493.6v-454l119.9.333a27.679 27.679 0 0015.161-4.522 28.762 28.762 0 0010.352-12A39.565 39.565 0 01160.29 6.88 39.655 39.655 0 01181.932.5a39.655 39.655 0 0121.641 6.385 39.566 39.566 0 0114.376 16.531 28.762 28.762 0 0010.352 12 27.679 27.679 0 0015.161 4.522L362.5 39.6v454z" fill="#fcdb48" stroke="rgba(0,0,0,0)" stroke-miterlimit="10" stroke-width="1"/></svg>