<svg xmlns="http://www.w3.org/2000/svg" width="361" height="486.435"><path id="Subtraction_1" data-name="Subtraction 1" d="M242.119 485.935a27.416 27.416 0 01-15.077-4.522 28.714 28.714 0 01-10.294-12 39.578 39.578 0 00-35.819-22.913 39.578 39.578 0 00-35.819 22.915 28.714 28.714 0 01-10.294 12 27.415 27.415 0 01-15.077 4.522L.5 485.6v-446l119.24.333a27.417 27.417 0 0015.077-4.522 28.716 28.716 0 0010.294-12 39.5 39.5 0 0114.3-16.531A39.282 39.282 0 01180.929.5a39.277 39.277 0 0121.521 6.385 39.5 39.5 0 0114.3 16.531 28.716 28.716 0 0010.294 12 27.417 27.417 0 0015.077 4.522L360.5 39.6v446z" fill="#fcdb48" stroke="rgba(0,0,0,0)" stroke-miterlimit="10" stroke-width="1"/></svg>