<svg xmlns="http://www.w3.org/2000/svg" width="1921" height="1016.001"><path id="yellow_bg" data-name="yellow bg" d="M1920.5 1015.5h-859.143a45.188 45.188 0 01-24.85-7.453 47.334 47.334 0 01-16.968-19.777 65.042 65.042 0 00-118.078 0 47.331 47.331 0 01-16.969 19.777 45.187 45.187 0 01-24.849 7.453H.5v-950h859.143a45.184 45.184 0 0024.85-7.453 47.333 47.333 0 0016.969-19.775 65.042 65.042 0 01118.078 0 47.325 47.325 0 0016.968 19.775 45.182 45.182 0 0024.849 7.453H1920.5v950z" fill="#fcdb48" stroke="rgba(0,0,0,0)" stroke-miterlimit="10" stroke-width="1"/></svg>