<svg xmlns="http://www.w3.org/2000/svg" width="361" height="814.435"><path id="Subtraction_2" data-name="Subtraction 2" d="M242.119 813.935a27.414 27.414 0 01-15.077-4.522 28.717 28.717 0 01-10.294-12 39.577 39.577 0 00-35.819-22.913 39.578 39.578 0 00-35.819 22.915 28.718 28.718 0 01-10.294 12 27.414 27.414 0 01-15.077 4.522L.5 813.6v-774l119.24.333a27.417 27.417 0 0015.077-4.522 28.715 28.715 0 0010.294-12 39.5 39.5 0 0114.3-16.531A39.279 39.279 0 01180.929.5a39.279 39.279 0 0121.521 6.385 39.5 39.5 0 0114.3 16.531 28.715 28.715 0 0010.294 12 27.417 27.417 0 0015.077 4.522L360.5 39.6v774z" fill="#fcdb48" stroke="rgba(0,0,0,0)" stroke-miterlimit="10" stroke-width="1"/></svg>