<svg xmlns="http://www.w3.org/2000/svg" width="105.916" height="90.764" viewBox="0 0 105.916 90.764">
  <g id="Group_9" data-name="Group 9" transform="translate(-907.042 -2742)">
    <circle id="Ellipse_2" data-name="Ellipse 2" cx="37.5" cy="37.5" r="37.5" transform="translate(923 2742)" fill="none" opacity="0.35" style="mix-blend-mode: multiply;isolation: isolate"/>
    <path id="Union_1" data-name="Union 1" d="M0,20H8.25L11,0l2.75,20H22L11,40Z" transform="translate(949.749 2757)" fill="#732163"/>
    <g id="Group_8" data-name="Group 8" transform="translate(353.505 1564.027)">
      <path id="Path_37" data-name="Path 37" d="M554.226,1223.574l5.365-4.3-5.883-1.239-.171-1.828,6.349,1.4,1.32.382,2.48-1.9.183,1.953-2.279,1.732-2.117,1.717,1.6.3,3.2.622.173,1.846-6.539-1.486-3.495,2.841Z" fill="#732163"/>
      <path id="Path_38" data-name="Path 38" d="M567.318,1233.225l-1.516.516-9.145-.438-.621-1.823,9.264.4-1.749-5.128,4.038-1.377.563,1.652-2.64.9Z" fill="#732163"/>
      <path id="Path_39" data-name="Path 39" d="M565.062,1246.922a3.827,3.827,0,0,1-2.885-1.912,7.014,7.014,0,0,1-.685-1.4l1.349-.63a5.778,5.778,0,0,0,.511,1.062,2.22,2.22,0,0,0,1.882,1.166,5.073,5.073,0,0,0,2.688-.978,5.02,5.02,0,0,0,2.045-2.029,1.977,1.977,0,0,0-.21-1.909,2.028,2.028,0,0,0-1.179-.921,2.411,2.411,0,0,0-1.508.1l-6.452,2.71-1.041-1.621,6.562-2.673,1.892-2.884,1.079,1.682-1.349,1.829a3.338,3.338,0,0,1,2.053.049,2.925,2.925,0,0,1,1.431,1.178,3.406,3.406,0,0,1,.464,3.039,6.2,6.2,0,0,1-2.749,2.964A6.123,6.123,0,0,1,565.062,1246.922Z" fill="#732163"/>
      <path id="Path_40" data-name="Path 40" d="M576.167,1248.9l1.235-1.719,1.428,1.265-1.222,1.732-7.7,8.69-1.442-1.277Z" fill="#732163"/>
      <path id="Path_41" data-name="Path 41" d="M579.754,1251.88l1.051-1.839,1.551,1.11L581.321,1253l-4.662,6.515-1.566-1.121Z" fill="#732163"/>
      <path id="Path_42" data-name="Path 42" d="M590.885,1256.763a3.858,3.858,0,0,1-.416,2.751l-2.811,5.937-1.741-.823,2.85-6.02q.847-1.789-.618-2.483l-2.505-1.186-3.7,7.809-1.74-.824,4-8.444.331-.7L589.22,1255A2.9,2.9,0,0,1,590.885,1256.763Z" fill="#732163"/>
      <path id="Path_43" data-name="Path 43" d="M594.16,1257.049l1.892.363-.661,8.58q4.161.38,4.782-3.515l.1-.5a2.429,2.429,0,0,0-.21-1.671,2.1,2.1,0,0,0-1.388-.983l-.874-.223.428-1.457,1.032.253a4.126,4.126,0,0,1,2.357,1.471,3.547,3.547,0,0,1,.537,2.734l-.078.5a5.182,5.182,0,0,1-2.779,4.2,10.125,10.125,0,0,1-5.9.58Z" fill="#732163"/>
      <path id="Path_44" data-name="Path 44" d="M604.967,1260.722l-.182-2.11,1.908.032.2,2.109-.045,2.735-.036,1.134-1.914.329Z" fill="#732163"/>
      <path id="Path_45" data-name="Path 45" d="M618.537,1266.025l.227,1.458-3.131.487-4.945.767-.226-1.459,4.945-.767-.823-5.3a1.92,1.92,0,0,0-.62-1.3,1.62,1.62,0,0,0-1.257-.232l-3.344.518-.226-1.458,3.824-.594a3.038,3.038,0,0,1,2.348.456,3.5,3.5,0,0,1,1.192,2.4l.809,5.212Z" fill="#732163"/>
      <path id="Path_46" data-name="Path 46" d="M628.638,1256.257a1.919,1.919,0,0,0-.993-1.04,1.612,1.612,0,0,0-1.267.17l-3.209,1.631-.669-1.316,3.643-1.851a3.037,3.037,0,0,1,2.373-.3,3.494,3.494,0,0,1,1.88,1.911l4.69,9.226-1.717.873Z" fill="#732163"/>
      <path id="Path_47" data-name="Path 47" d="M636.348,1246.659l1.016,1.239,2.8,8.717-1.49,1.222-2.877-8.815-4.189,3.436-2.7-3.3,1.35-1.107,1.77,2.157Z" fill="#732163"/>
      <path id="Path_48" data-name="Path 48" d="M644.609,1235.563a39.458,39.458,0,0,1,4.446,3.188,5.421,5.421,0,0,1,1.77,2.74,6.283,6.283,0,0,1-.507,3.772l-1.268,3.207-1.418-.59,1.143-2.881-8.436-2.786,1.041-1.62,7.951,2.709a2.761,2.761,0,0,0-.332-1.882,6.015,6.015,0,0,0-1.549-1.636q-1.055-.806-3.281-2.235l-.591-.38Z" fill="#732163"/>
      <path id="Path_49" data-name="Path 49" d="M647.412,1234.153l-2.026-.617.739-1.759,2.033.6,2.522,1.06,1.038.456-.407,1.9Z" fill="#732163"/>
      <path id="Path_50" data-name="Path 50" d="M657.747,1228.574l-2.242-.182a5.43,5.43,0,0,1,1.154,1.588,5.571,5.571,0,0,1,.5,1.957l-1.658.288a7.137,7.137,0,0,0-.522-2.288,4.7,4.7,0,0,0-1.255-1.7l-3.046-.8a2.364,2.364,0,0,0-1.158-.092,1.029,1.029,0,0,0-.626.644l-.446,1.056-1.346-.616.7-1.658a2.193,2.193,0,0,1,1.193-1.278,3.3,3.3,0,0,1,1.984.031l3.341.881,3.9.4Z" fill="#732163"/>
      <path id="Path_51" data-name="Path 51" d="M658.17,1214.24a3.825,3.825,0,0,1,1.279,3.217,7.019,7.019,0,0,1-.237,1.541l-1.467-.252a5.865,5.865,0,0,0,.186-1.164,2.219,2.219,0,0,0-.881-2.031,5.075,5.075,0,0,0-2.765-.732,5.018,5.018,0,0,0-2.837.5,1.981,1.981,0,0,0-.917,1.687,2.034,2.034,0,0,0,.443,1.431,2.423,2.423,0,0,0,1.3.776l6.845,1.456-.07,1.925-6.914-1.549-3.2,1.289.073-2,2.152-.733a3.337,3.337,0,0,1-1.658-1.212,2.91,2.91,0,0,1-.5-1.784,3.4,3.4,0,0,1,1.352-2.76,6.2,6.2,0,0,1,3.949-.866A6.125,6.125,0,0,1,658.17,1214.24Z" fill="#732163"/>
    </g>
  </g>
</svg>
