<svg xmlns="http://www.w3.org/2000/svg" width="105.576" height="91" viewBox="0 0 105.576 91">
  <g id="arrow_top_page" data-name="arrow top page" transform="translate(-908.212 -1800)">
    <circle id="Ellipse_6" data-name="Ellipse 6" cx="37.5" cy="37.5" r="37.5" transform="translate(923 1800)" fill="none" style="mix-blend-mode: multiply;isolation: isolate"/>
    <path id="Union_2" data-name="Union 2" d="M0,20H8.25L11,0l2.75,20H22L11,40Z" transform="translate(949.749 1815)" fill="#732163"/>
    <g id="Group_7" data-name="Group 7" transform="translate(664.292 654.102)">
      <path id="Path_17" data-name="Path 17" d="M253.209,1179a3.491,3.491,0,0,1-2.663.309l-6.626-1.285.367-1.891,1.124-5.8.086-.442,9.931,1.926-.367,1.891-.627,3.234A3.04,3.04,0,0,1,253.209,1179Zm-7.473-2.587,5.265,1.023a1.921,1.921,0,0,0,1.431-.145,1.614,1.614,0,0,0,.645-1.1l.535-2.757-7.033-1.364Z" fill="#732163"/>
      <path id="Path_18" data-name="Path 18" d="M251.779,1182.467l2.109-.182-.031,1.907-2.109.2-2.736-.044-1.134-.037-.328-1.914Z" fill="#732163"/>
      <path id="Path_19" data-name="Path 19" d="M251.868,1187.245l2.077-.407.175,1.9-2.076.426-2.724.251-1.132.086-.533-1.867Z" fill="#732163"/>
      <path id="Path_20" data-name="Path 20" d="M255.445,1198.835a3.853,3.853,0,0,1-2.353,1.483l-6.331,1.756-.514-1.856,6.418-1.78q1.908-.528,1.475-2.09l-.741-2.671-8.326,2.308-.515-1.855,9-2.5.745-.207,1.385,4.995A2.9,2.9,0,0,1,255.445,1198.835Z" fill="#732163"/>
      <path id="Path_21" data-name="Path 21" d="M252.953,1204.267l1.18-.366.824,1.437-5.295,3.034-.957-1.671Zm4.72,4.328a1.922,1.922,0,0,0,.989-1.044,1.614,1.614,0,0,0-.233-1.257l-2.2-3.842,1.281-.734,2.443,4.263a3.046,3.046,0,0,1,.416,2.356,3.508,3.508,0,0,1-1.815,1.974l-5.857,3.355-.958-1.671Z" fill="#732163"/>
      <path id="Path_22" data-name="Path 22" d="M262.3,1222.776a3.819,3.819,0,0,1-3.216-1.28,7.01,7.01,0,0,1-.958-1.229l1.192-.894a5.771,5.771,0,0,0,.718.935,2.219,2.219,0,0,0,2.081.755,5.082,5.082,0,0,0,2.43-1.507,5.027,5.027,0,0,0,1.586-2.407,1.98,1.98,0,0,0-.6-1.824,2.027,2.027,0,0,0-1.344-.66,2.412,2.412,0,0,0-1.454.408l-5.761,3.975-1.351-1.373,5.875-3.961,1.261-3.21,1.4,1.424-.946,2.067a3.348,3.348,0,0,1,2.021-.372,2.913,2.913,0,0,1,1.641.86,3.4,3.4,0,0,1,1.077,2.879,6.2,6.2,0,0,1-2.084,3.464A6.111,6.111,0,0,1,262.3,1222.776Z" fill="#732163"/>
      <path id="Path_23" data-name="Path 23" d="M269.937,1228.652a2.016,2.016,0,0,0,1.508.088,2.333,2.333,0,0,0,.943-1.169l2.978-6.377,4.4,2.057a3.04,3.04,0,0,1,1.7,1.686,3.494,3.494,0,0,1-.348,2.658l-2.856,6.116-1.745-.815,2.894-6.2a1.924,1.924,0,0,0,.208-1.423,1.608,1.608,0,0,0-.914-.893l-2.218-1.036-2.262,4.843a3.5,3.5,0,0,1-1.847,2,4.374,4.374,0,0,1-2.849-.238Z" fill="#732163"/>
      <path id="Path_24" data-name="Path 24" d="M284.62,1227.153l.308-2.094,1.849.468-.29,2.1-1.966,7.766-1.866-.473Z" fill="#732163"/>
      <path id="Path_25" data-name="Path 25" d="M288.113,1234.655l2.9.328.638-5.615a1.694,1.694,0,0,0-.177-1.152,1.446,1.446,0,0,0-.863-.542l-1.2-.317.414-1.42,1.83.479a2.486,2.486,0,0,1,1.551,1.091,3.132,3.132,0,0,1,.357,2.043l-.807,7.118-4.811-.547Z" fill="#732163"/>
      <path id="Path_26" data-name="Path 26" d="M302.63,1229.55a1.923,1.923,0,0,0-.533-1.335,1.615,1.615,0,0,0-1.239-.316l-4.411.388-.129-1.471,4.9-.43a3.039,3.039,0,0,1,2.312.61,3.494,3.494,0,0,1,1.031,2.475l.592,6.724-1.919.168Zm-5.908,2.471.163-1.224,1.65-.146.534,6.078-1.918.169Z" fill="#732163"/>
      <path id="Path_27" data-name="Path 27" d="M307.275,1227.441l-.756-1.977,1.843-.495.773,1.972.71,2.642.277,1.1-1.749.842Z" fill="#732163"/>
      <path id="Path_28" data-name="Path 28" d="M317.292,1221.407l.657,1.461.42,9.146-1.757.79-.471-9.261-4.942,2.221-1.749-3.892,1.592-.715,1.144,2.544Z" fill="#732163"/>
      <path id="Path_29" data-name="Path 29" d="M328.125,1217.316a1.917,1.917,0,0,0-1.225-.753,1.607,1.607,0,0,0-1.182.484l-2.691,2.391-.981-1.1,3.055-2.714a3.043,3.043,0,0,1,2.219-.89,3.494,3.494,0,0,1,2.3,1.373l6.875,7.737-1.44,1.279Z" fill="#732163"/>
      <path id="Path_30" data-name="Path 30" d="M333.152,1206.092l1.3.942,4.907,7.73-1.133,1.557-5.009-7.8-3.186,4.382-3.45-2.508,1.027-1.413,2.256,1.641Z" fill="#732163"/>
      <path id="Path_31" data-name="Path 31" d="M338.322,1193.281a39.424,39.424,0,0,1,5.11,1.952,5.428,5.428,0,0,1,2.408,2.2,6.287,6.287,0,0,1,.468,3.776l-.412,3.424-1.521-.21.374-3.076-8.867-.552.6-1.832,8.377.6a2.753,2.753,0,0,0-.8-1.735,5.993,5.993,0,0,0-1.914-1.189q-1.225-.511-3.742-1.328l-.667-.217Z" fill="#732163"/>
      <path id="Path_32" data-name="Path 32" d="M340.676,1191.173l-2.115-.079.266-1.89,2.118.062,2.709.381,1.12.176.091,1.94Z" fill="#732163"/>
      <path id="Path_33" data-name="Path 33" d="M349.263,1183.461l-2.22.359a5.446,5.446,0,0,1,1.5,1.267,5.58,5.58,0,0,1,.952,1.78l-1.541.677a7.134,7.134,0,0,0-1.055-2.1,4.7,4.7,0,0,0-1.626-1.349l-3.149-.051a2.366,2.366,0,0,0-1.146.188,1.03,1.03,0,0,0-.454.776l-.18,1.132-1.454-.276.281-1.778a2.2,2.2,0,0,1,.853-1.526,3.286,3.286,0,0,1,1.933-.445l3.456.056,3.879-.549Z" fill="#732163"/>
      <path id="Path_34" data-name="Path 34" d="M346.043,1169.182a3.824,3.824,0,0,1,2.05,2.789,6.9,6.9,0,0,1,.16,1.55l-1.483.127a5.748,5.748,0,0,0-.114-1.173,2.224,2.224,0,0,0-1.365-1.744,5.089,5.089,0,0,0-2.86-.008,5.014,5.014,0,0,0-2.619,1.2,1.976,1.976,0,0,0-.461,1.863,2.037,2.037,0,0,0,.79,1.273,2.419,2.419,0,0,0,1.45.423l6.991-.321.418,1.88-7.081.249-2.769,2.055-.434-1.95,1.9-1.252a3.339,3.339,0,0,1-1.911-.755,2.9,2.9,0,0,1-.936-1.6,3.4,3.4,0,0,1,.61-3.013,6.214,6.214,0,0,1,3.6-1.835A6.113,6.113,0,0,1,346.043,1169.182Z" fill="#732163"/>
    </g>
  </g>
</svg>
