<svg id="Group_11" data-name="Group 11" xmlns="http://www.w3.org/2000/svg" width="147.893" height="150" viewBox="0 0 147.893 150">
  <path id="Path_53" data-name="Path 53" d="M953.616,798.046a12.724,12.724,0,0,0-17.344-4.656l-1.758,1.012V778.4h-4.621v18.663L908.948,809.1A12.6,12.6,0,0,0,896.4,794.571H858.713a16.2,16.2,0,0,0-8.4,2.355l-8.224,5.012V776.085h-4.621v28.667l-10.391,6.329a2.27,2.27,0,0,0-.811.922l-3.027-4.8a2.31,2.31,0,0,0-3.145-.746l-11.545,6.932a2.309,2.309,0,0,0-.735,3.26l29.059,43.7a2.313,2.313,0,0,0,3.2.647l10.188-6.743a2.312,2.312,0,0,0,.679-3.161l-1.486-2.355,6.669-4a11.509,11.509,0,0,1,5.934-1.645H896.1a16.208,16.208,0,0,0,8-2.119L948.969,815.4A12.725,12.725,0,0,0,953.616,798.046Zm-6.946,13.347-44.851,25.568a11.587,11.587,0,0,1-5.714,1.514H862.054a16.149,16.149,0,0,0-8.314,2.3l-6.756,4.055-18.62-29.5a2.242,2.242,0,0,0,1.111-.3l23.234-14.156a11.57,11.57,0,0,1,6-1.682H896.4a8.087,8.087,0,0,1-.007,16.175H869.814a2.311,2.311,0,0,0,0,4.621h26.576a12.679,12.679,0,0,0,9.844-4.688,2.3,2.3,0,0,0,1.62-.236L938.581,797.4a8.083,8.083,0,0,1,8.09,14Z" transform="translate(-807.423 -711.385)" fill="#732163"/>
  <path id="Path_54" data-name="Path 54" d="M816.735,808.163H830.6a2.31,2.31,0,0,0,2.311-2.311v-5.731l43.9-30.73,43.9,30.73v8.042a2.31,2.31,0,0,0,2.311,2.311h13.864a2.31,2.31,0,0,0,2.311-2.311V791.988a2.307,2.307,0,0,0-1-1.9L878.128,748.5a2.314,2.314,0,0,0-2.632,0l-60.079,41.593a2.311,2.311,0,0,0-.993,1.9v13.864A2.31,2.31,0,0,0,816.735,808.163Z" transform="translate(-798.248 -748.085)" fill="#732163"/>
  <path id="Path_55" data-name="Path 55" d="M855.045,752.706h18.486v20.8h4.621V750.4a2.31,2.31,0,0,0-2.311-2.311H852.735a2.31,2.31,0,0,0-2.311,2.311v6.932h4.621Z" transform="translate(-751.062 -748.085)" fill="#732163"/>
</svg>
