<svg xmlns="http://www.w3.org/2000/svg" width="172.369" height="150" viewBox="0 0 172.369 150">
  <path id="Path_52" data-name="Path 52" d="M1012.316,752.5c-15.737,0-29.426,6.839-38.158,18.911C965.426,759.339,951.737,752.5,936,752.5a46.107,46.107,0,0,0-46.053,46.053c0,10.587,3.732,22.071,10.987,34.211H886v13.158h46.053a6.582,6.582,0,0,0,5.642-3.195l1.729-2.882,7.8,15.6a6.581,6.581,0,0,0,5.884,3.637c.108,0,.218,0,.329-.008a6.581,6.581,0,0,0,5.818-4.229l14.855-39,9.679,25.808a6.579,6.579,0,0,0,6.16,4.268h27.632V832.763H994.505l-14.187-37.837a6.579,6.579,0,0,0-6.145-4.268h-.016a6.58,6.58,0,0,0-6.148,4.237l-15.721,41.263-6.458-12.916a6.579,6.579,0,0,0-11.526-.442l-5.979,9.963H907.073c-7.871-12.329-11.863-23.816-11.863-34.211A40.835,40.835,0,0,1,936,757.763c15.276,0,28.361,7.208,35.9,19.776a2.737,2.737,0,0,0,4.51,0c7.542-12.568,20.626-19.776,35.9-19.776a40.835,40.835,0,0,1,40.79,40.789c0,43.208-68.153,90.879-78.947,98.158-6.15-4.137-30.937-21.368-51.026-43.353a2.632,2.632,0,0,0-3.884,3.553c23.471,25.684,53.187,44.979,53.484,45.168a2.627,2.627,0,0,0,2.853,0c3.382-2.179,82.784-53.979,82.784-103.526A46.107,46.107,0,0,0,1012.316,752.5Z" transform="translate(-886 -752.5)" fill="#732163"/>
</svg>
