<svg xmlns="http://www.w3.org/2000/svg" width="173.105" height="150" viewBox="0 0 173.105 150">
  <path id="Path_56" data-name="Path 56" d="M882.105,868.417H851.819v-66.55a18.818,18.818,0,0,0-18.8-18.8h-6.255a5.657,5.657,0,0,0-4.963-8.443H776.227a5.657,5.657,0,0,0-4.964,8.443H758.212V771.583a24.331,24.331,0,0,0-24.3-24.3h-2.119V745H709v9.115h22.789v-2.279h2.119a19.768,19.768,0,0,1,19.746,19.746v36.384A43.543,43.543,0,1,0,799.4,853.7h47.861v14.924a13.312,13.312,0,1,0,12.274,4.348h22.57Zm-34.844-66.55v5.982H758.212V787.626h74.811A14.257,14.257,0,0,1,847.261,801.867Zm-91.317,33.126a16.431,16.431,0,1,1-16.453,16.431A16.449,16.449,0,0,1,755.945,834.993Zm43.506,14.152c-.018-.353-.075-.693-.1-1.044-.055-.72-.123-1.436-.214-2.144s-.2-1.392-.317-2.081-.251-1.385-.406-2.069-.335-1.354-.522-2.024-.371-1.333-.586-1.987-.469-1.306-.718-1.953-.481-1.272-.754-1.891c-.283-.643-.6-1.263-.912-1.889-.3-.592-.579-1.192-.9-1.771-.349-.629-.738-1.228-1.117-1.839-.339-.54-.659-1.094-1.021-1.618-.429-.627-.9-1.219-1.363-1.823-.36-.472-.7-.959-1.078-1.415-.631-.757-1.308-1.47-1.985-2.183-.449-.469-.9-.932-1.37-1.381-.757-.727-1.52-1.445-2.327-2.115-.413-.344-.857-.65-1.281-.978-.649-.5-1.29-1.007-1.967-1.47-.479-.328-.982-.62-1.474-.927-.661-.415-1.315-.836-2-1.215-.524-.292-1.067-.547-1.6-.816l-.2-.1h72.028v36.738Z" transform="translate(-709 -745)" fill="#732163"/>
</svg>
