<svg xmlns="http://www.w3.org/2000/svg" width="361" height="814.435" viewBox="0 0 361 814.435">
  <path id="Subtraction_2" data-name="Subtraction 2" d="M-4211.381,813.435a27.414,27.414,0,0,1-15.077-4.522,28.717,28.717,0,0,1-10.294-12A39.577,39.577,0,0,0-4272.571,774a39.578,39.578,0,0,0-35.819,22.915,28.718,28.718,0,0,1-10.294,12,27.414,27.414,0,0,1-15.077,4.522L-4453,813.1V39.1l119.24.333a27.417,27.417,0,0,0,15.077-4.522,28.715,28.715,0,0,0,10.294-12,39.5,39.5,0,0,1,14.3-16.531A39.279,39.279,0,0,1-4272.571,0a39.279,39.279,0,0,1,21.521,6.385,39.5,39.5,0,0,1,14.3,16.531,28.715,28.715,0,0,0,10.294,12,27.417,27.417,0,0,0,15.077,4.522L-4093,39.1v774Z" transform="translate(4453.5 0.5)" fill="#fcdb48" stroke="rgba(0,0,0,0)" stroke-miterlimit="10" stroke-width="1"/>
</svg>
