<svg xmlns="http://www.w3.org/2000/svg" width="363" height="494.436" viewBox="0 0 363 494.436">
  <path id="Subtraction_3" data-name="Subtraction 3" d="M-4210.039,493.436a27.677,27.677,0,0,1-15.161-4.522,28.76,28.76,0,0,1-10.352-12A39.812,39.812,0,0,0-4271.568,454a39.812,39.812,0,0,0-36.018,22.916,28.763,28.763,0,0,1-10.352,12,27.677,27.677,0,0,1-15.161,4.522L-4453,493.1V39.1l119.9.333a27.679,27.679,0,0,0,15.161-4.522,28.762,28.762,0,0,0,10.352-12,39.565,39.565,0,0,1,14.377-16.531A39.655,39.655,0,0,1-4271.568,0a39.655,39.655,0,0,1,21.641,6.385,39.566,39.566,0,0,1,14.376,16.531,28.762,28.762,0,0,0,10.352,12,27.679,27.679,0,0,0,15.161,4.522L-4091,39.1v454Z" transform="translate(4453.5 0.5)" fill="#fcdb48" stroke="rgba(0,0,0,0)" stroke-miterlimit="10" stroke-width="1"/>
</svg>
