<svg xmlns="http://www.w3.org/2000/svg" width="361" height="486.435" viewBox="0 0 361 486.435">
  <path id="Subtraction_1" data-name="Subtraction 1" d="M-4211.381,485.435a27.416,27.416,0,0,1-15.077-4.522,28.714,28.714,0,0,1-10.294-12A39.578,39.578,0,0,0-4272.571,446a39.578,39.578,0,0,0-35.819,22.915,28.714,28.714,0,0,1-10.294,12,27.415,27.415,0,0,1-15.077,4.522L-4453,485.1V39.1l119.24.333a27.417,27.417,0,0,0,15.077-4.522,28.716,28.716,0,0,0,10.294-12,39.5,39.5,0,0,1,14.3-16.531A39.282,39.282,0,0,1-4272.571,0a39.277,39.277,0,0,1,21.521,6.385,39.5,39.5,0,0,1,14.3,16.531,28.716,28.716,0,0,0,10.294,12,27.417,27.417,0,0,0,15.077,4.522L-4093,39.1v446Z" transform="translate(4453.5 0.5)" fill="#fcdb48" stroke="rgba(0,0,0,0)" stroke-miterlimit="10" stroke-width="1"/>
</svg>
