<svg xmlns="http://www.w3.org/2000/svg" width="1921" height="1016.001" viewBox="0 0 1921 1016.001">
  <path id="yellow_bg" data-name="yellow bg" d="M1920,1015H1060.857a45.188,45.188,0,0,1-24.85-7.453,47.334,47.334,0,0,1-16.968-19.777,65.042,65.042,0,0,0-118.078,0,47.331,47.331,0,0,1-16.969,19.777A45.187,45.187,0,0,1,859.143,1015H0V65H859.143a45.184,45.184,0,0,0,24.85-7.453,47.333,47.333,0,0,0,16.969-19.775,65.042,65.042,0,0,1,118.078,0,47.325,47.325,0,0,0,16.968,19.775A45.182,45.182,0,0,0,1060.857,65H1920v950Z" transform="translate(0.5 0.5)" fill="#fcdb48" stroke="rgba(0,0,0,0)" stroke-miterlimit="10" stroke-width="1"/>
</svg>
